<?xml version="1.0" encoding="UTF-8" standalone="no"?>
<svg width="376px" height="76px" viewBox="0 0 376 76" version="1.1" xmlns="http://www.w3.org/2000/svg" xmlns:xlink="http://www.w3.org/1999/xlink">
    <!-- Generator: Sketch 39.1 (31720) - http://www.bohemiancoding.com/sketch -->
    <title>Slice 1</title>
    <desc>Created with Sketch.</desc>
    <defs></defs>
    <g id="Page-1" stroke="none" stroke-width="1" fill="none" fill-rule="evenodd">
        <g id="styletron2" transform="translate(0.000000, 1.000000)">
            <polygon id="Shape" fill-opacity="0.0784314" fill="#FF0006" points="30.7284123 70 0.167621187 52.5 30.7284123 35 61.2894039 52.5"></polygon>
            <polygon id="Shape" fill-opacity="0.0784314" fill="#FF0006" points="0.167621187 46.1363636 30.7284123 28.6363636 61.2894039 46.1363636 30.7284123 63.6363636"></polygon>
            <polygon id="Shape" fill-opacity="0.588235" fill="#FF0006" points="0.167621187 39.7727273 5.72418335 42.9545455 5.72418335 49.3181818 30.7284123 63.6363636 61.2894039 46.1363636 61.2894039 52.5 30.7284123 70 0.167621187 52.5 0.167621187 46.1363636"></polygon>
            <polygon id="Shape" fill-opacity="0.588235" fill="#FF0006" points="61.2894039 52.5 61.2894039 46.1363636 30.7284123 28.6363636 30.7284123 35"></polygon>
            <polygon id="Shape" fill-opacity="0.0784314" fill="#FF0006" points="0.167621187 46.1363636 5.72418335 42.9545455 11.280545 46.1363636 11.280545 39.7727273 5.72418335 36.5909091 0.167621187 39.7727273"></polygon>
            <polygon id="Shape" fill-opacity="0.0784314" fill="#FF0006" points="5.72418335 49.3181818 11.280545 46.1363636 11.280545 39.7727273 5.72418335 36.5909091 0.167621187 39.7727273 5.72418335 42.9545455"></polygon>
            <path d="M0.167621187,46.1363636 L5.72418335,42.9545455" id="Shape" fill-opacity="0.0784314" fill="#FF0006"></path>
            <polygon id="Shape" fill-opacity="0.0980392" fill="#FF0006" points="30.7284123 28.6363636 0.167621187 46.1363636 0.167621187 52.5 30.7284123 35"></polygon>
            <polygon id="Shape" fill-opacity="0.596078" fill="#005AFF" points="0.167621187 23.8636364 0.167621187 17.5 30.7284123 0 61.2894039 17.5 61.2894039 30.2272727 55.7328418 27.0454545 55.7328418 20.6818182 30.7284123 6.36363636"></polygon>
            <g id="Group" transform="translate(0.000000, 17.500000)" fill-opacity="0.705882" fill="#005AFF">
                <polygon id="Shape" points="0.167621187 0 30.7284123 17.5 30.7284123 23.8636364 0.167621187 6.36363636"></polygon>
            </g>
            <polygon id="Shape" fill-opacity="0.0823529" fill="#005AFF" points="0.167621187 17.5 30.7284123 35 61.2894039 17.5 30.7284123 0"></polygon>
            <polygon id="Shape" fill-opacity="0.0823529" fill="#005AFF" points="61.2894039 23.8636364 30.7284123 6.36363636 0.167621187 23.8636364 30.7284123 41.3636364"></polygon>
            <g id="Group" transform="translate(50.125953, 27.045455)" fill-opacity="0.0784314" fill="#005AFF">
                <polygon id="Shape" points="5.60688862 6.36363636 0.050326457 3.18181818 5.60688862 0 11.1634508 3.18181818"></polygon>
            </g>
            <g id="Group" transform="translate(50.125953, 20.681818)" fill-opacity="0.0784314" fill="#005AFF">
                <polygon id="Shape" points="5.60688862 6.36363636 0.050326457 9.54545455 0.050326457 3.18181818 5.60688862 0"></polygon>
            </g>
            <g id="Group" transform="translate(50.125953, 23.863636)" fill-opacity="0.0784314" fill="#005AFF">
                <polygon id="Shape" points="5.60688862 9.54545455 5.60688862 3.18181818 0.050326457 0 0.050326457 6.36363636"></polygon>
            </g>
            <g id="Group" transform="translate(55.539556, 23.863636)" fill-opacity="0.08" fill="#005AFF">
                <polygon id="Shape" points="0.193285675 9.54545455 5.74984783 6.36363636 5.74984783 0 0.193285675 3.18181818"></polygon>
            </g>
            <g id="Group" transform="translate(30.677083, 17.500000)" fill-opacity="0.101961" fill="#005AFF">
                <polygon id="Shape" points="0.051328976 23.8636364 30.6123206 6.36363636 30.6123206 0 0.051328976 17.5"></polygon>
            </g>
        </g>
        <path d="M115.84082,48.4072266 C115.84082,43.4052484 111.575238,40.0029387 103.043945,38.2001953 C97.9150134,37.108393 94.3476663,35.705575 92.3417969,33.9916992 C90.3359275,32.2778235 89.3330078,29.9228665 89.3330078,26.9267578 C89.3330078,23.9052583 90.608874,21.417002 93.1606445,19.4619141 C95.7124151,17.5068262 99.0322061,16.5292969 103.120117,16.5292969 C107.563499,16.5292969 111.130846,17.5893449 113.822266,19.7094727 C116.513685,21.8296004 117.859375,24.6923648 117.859375,28.2978516 L115.764648,28.2978516 C115.764648,25.5302596 114.596691,23.2197358 112.260742,21.3662109 C109.924793,19.512686 106.877948,18.5859375 103.120117,18.5859375 C99.5146304,18.5859375 96.6582137,19.373039 94.5507812,20.9472656 C92.4433488,22.5214922 91.3896484,24.489246 91.3896484,26.8505859 C91.3896484,28.7041108 91.7831992,30.1577096 92.5703125,31.2114258 C93.3574258,32.265142 94.6396396,33.2172809 96.4169922,34.0678711 C98.1943448,34.9184613 100.784163,35.7373008 104.186523,36.5244141 C107.588884,37.3115274 110.280264,38.2382759 112.260742,39.3046875 C114.241221,40.3710991 115.675777,41.63427 116.564453,43.0942383 C117.453129,44.5542065 117.897461,46.3378801 117.897461,48.4453125 C117.897461,51.6953287 116.564466,54.310537 113.898438,56.2910156 C111.232409,58.2714943 107.741233,59.2617188 103.424805,59.2617188 C98.8036878,59.2617188 95.0776509,58.2143659 92.246582,56.1196289 C89.4155132,54.0248919 88,51.3271649 88,48.0263672 L90.0566406,48.0263672 C90.2597666,50.9209129 91.5356328,53.1743083 93.8842773,54.7866211 C96.2329219,56.3989338 99.4130659,57.2050781 103.424805,57.2050781 C107.106464,57.2050781 110.09618,56.3481531 112.394043,54.6342773 C114.691906,52.9204016 115.84082,50.8447388 115.84082,48.4072266 L115.84082,48.4072266 Z M133.855469,6.16992188 L133.855469,17.2910156 L143.224609,17.2910156 L143.224609,19.3857422 L133.855469,19.3857422 L133.855469,48.6357422 C133.855469,51.5556787 134.331538,53.7138602 135.283691,55.1103516 C136.235845,56.5068429 137.82909,57.2050781 140.063477,57.2050781 C141.18067,57.2050781 142.539055,57.0908215 144.138672,56.8623047 L144.481445,58.8046875 C143.64355,59.1093765 142.208995,59.2617188 140.177734,59.2617188 C137.181626,59.2617188 135.036139,58.4301841 133.741211,56.7670898 C132.446283,55.1039956 131.786133,52.4824398 131.760742,48.9023438 L131.760742,19.3857422 L124.143555,19.3857422 L124.143555,17.2910156 L131.760742,17.2910156 L131.760742,6.16992188 L133.855469,6.16992188 Z M166.533203,55.3007812 L166.799805,54.5390625 L181.043945,17.2910156 L183.329102,17.2910156 L164.895508,65.6601562 L163.981445,67.9453125 C162.000967,72.7441646 158.725609,75.1435547 154.155273,75.1435547 C152.68261,75.1435547 151.666995,75.0039076 151.108398,74.7246094 L151.070312,72.7822266 C151.882817,73.0107433 152.809565,73.125 153.850586,73.125 C156.0088,73.125 157.798821,72.4965883 159.220703,71.2397461 C160.642585,69.9829039 161.874018,67.9326314 162.915039,65.0888672 L165.428711,58.2714844 L149.013672,17.2910156 L151.260742,17.2910156 L166.533203,55.3007812 Z M193.726562,58.5 L191.669922,58.5 L191.669922,0 L193.726562,0 L193.726562,58.5 Z M222.0625,59.2617188 C218.736311,59.2617188 215.683119,58.3667082 212.902832,56.5766602 C210.122545,54.7866121 207.94532,52.3300937 206.371094,49.2070312 C204.796867,46.0839688 204.009766,42.6181831 204.009766,38.8095703 L204.009766,37.0957031 C204.009766,33.2870903 204.771477,29.7959143 206.294922,26.6220703 C207.818367,23.4482263 209.913073,20.9726651 212.579102,19.1953125 C215.245131,17.4179599 218.152328,16.5292969 221.300781,16.5292969 C225.896507,16.5292969 229.654282,18.1669758 232.574219,21.4423828 C235.494155,24.7177898 236.954102,29.0214577 236.954102,34.3535156 L236.954102,36.5244141 L206.066406,36.5244141 L206.066406,38.7714844 C206.066406,42.1230636 206.770989,45.2270365 208.180176,48.0834961 C209.589363,50.9399557 211.531726,53.1806559 214.007324,54.8056641 C216.482923,56.4306722 219.167954,57.2431641 222.0625,57.2431641 C224.830092,57.2431641 227.185049,56.7797898 229.127441,55.8530273 C231.069834,54.9262649 232.790032,53.4980565 234.288086,51.5683594 L235.735352,52.5966797 C232.663071,57.0400613 228.105499,59.2617188 222.0625,59.2617188 L222.0625,59.2617188 Z M221.300781,18.5859375 C217.289042,18.5859375 213.886733,20.0776218 211.09375,23.0610352 C208.300767,26.0444485 206.663088,29.8466566 206.180664,34.4677734 L234.897461,34.4677734 L234.897461,33.9726562 C234.897461,31.1796735 234.307135,28.5835081 233.126465,26.184082 C231.945795,23.784656 230.320811,21.9184637 228.251465,20.5854492 C226.182119,19.2524347 223.865247,18.5859375 221.300781,18.5859375 L221.300781,18.5859375 Z M251.160156,6.16992188 L251.160156,17.2910156 L260.529297,17.2910156 L260.529297,19.3857422 L251.160156,19.3857422 L251.160156,48.6357422 C251.160156,51.5556787 251.636226,53.7138602 252.588379,55.1103516 C253.540532,56.5068429 255.133778,57.2050781 257.368164,57.2050781 C258.485357,57.2050781 259.843742,57.0908215 261.443359,56.8623047 L261.786133,58.8046875 C260.948238,59.1093765 259.513682,59.2617188 257.482422,59.2617188 C254.486313,59.2617188 252.340827,58.4301841 251.045898,56.7670898 C249.75097,55.1039956 249.09082,52.4824398 249.06543,48.9023438 L249.06543,19.3857422 L241.448242,19.3857422 L241.448242,17.2910156 L249.06543,17.2910156 L249.06543,6.16992188 L251.160156,6.16992188 Z M289.398438,18.7763672 L286.732422,18.5478516 C283.228498,18.5478516 280.29591,19.6840707 277.93457,21.956543 C275.57323,24.2290153 274.024418,27.4091592 273.288086,31.4970703 L273.288086,58.5 L271.231445,58.5 L271.231445,17.2910156 L273.288086,17.2910156 L273.288086,25.8603516 C274.405279,22.9911966 276.081044,20.7187584 278.31543,19.0429688 C280.549816,17.3671791 283.355452,16.5292969 286.732422,16.5292969 C287.925787,16.5292969 288.890621,16.6689439 289.626953,16.9482422 L289.398438,18.7763672 Z M293.435547,37.0957031 C293.435547,33.1601366 294.19091,29.6245274 295.70166,26.4887695 C297.21241,23.3530117 299.345201,20.9091884 302.100098,19.1572266 C304.854994,17.4052647 307.971662,16.5292969 311.450195,16.5292969 C314.903338,16.5292969 318.000963,17.3798743 320.743164,19.0810547 C323.485365,20.7822351 325.624504,23.1943203 327.160645,26.3173828 C328.696785,29.4404453 329.477539,32.9570117 329.50293,36.8671875 L329.50293,38.6953125 C329.50293,42.6562698 328.753914,46.1982266 327.255859,49.3212891 C325.757805,52.4443516 323.631361,54.8818272 320.876465,56.6337891 C318.121568,58.3857509 315.0049,59.2617188 311.526367,59.2617188 C308.047834,59.2617188 304.931166,58.3984461 302.17627,56.671875 C299.421373,54.9453039 297.282234,52.526871 295.758789,49.4165039 C294.235344,46.3061368 293.460938,42.8086132 293.435547,38.9238281 L293.435547,37.0957031 Z M295.492188,38.6953125 C295.492188,42.123064 296.17138,45.2651224 297.529785,48.121582 C298.88819,50.9780416 300.779773,53.2060467 303.20459,54.8056641 C305.629407,56.4052814 308.403305,57.2050781 311.526367,57.2050781 C316.223656,57.2050781 320.051255,55.4404473 323.009277,51.9111328 C325.9673,48.3818183 327.446289,43.8369419 327.446289,38.2763672 L327.446289,37.0957031 C327.446289,33.7187331 326.760749,30.5957175 325.389648,27.7265625 C324.018548,24.8574075 322.120618,22.6167073 319.695801,21.0043945 C317.270984,19.3920818 314.522476,18.5859375 311.450195,18.5859375 C306.752906,18.5859375 302.91896,20.3759587 299.948242,23.9560547 C296.977524,27.5361507 295.492188,32.0429416 295.492188,37.4765625 L295.492188,38.6953125 Z M341.538086,26.8886719 C342.883796,23.6894371 344.864245,21.1630952 347.479492,19.3095703 C350.09474,17.4560454 352.989242,16.5292969 356.163086,16.5292969 C360.581077,16.5292969 363.862782,17.7797727 366.008301,20.2807617 C368.153819,22.7817508 369.239258,26.5585685 369.264648,31.6113281 L369.264648,58.5 L367.208008,58.5 L367.208008,31.5351562 C367.182617,27.1171654 366.281259,23.8481551 364.503906,21.7280273 C362.726554,19.6078996 359.908222,18.5478516 356.048828,18.5478516 C352.494123,18.5478516 349.41554,19.8110225 346.812988,22.3374023 C344.210436,24.8637822 342.452153,28.1200973 341.538086,32.1064453 L341.538086,58.5 L339.481445,58.5 L339.481445,17.2910156 L341.538086,17.2910156 L341.538086,26.8886719 Z" id="styletron" fill="#000000"></path>
    </g>
</svg>